<svg xmlns="http://www.w3.org/2000/svg" viewBox="0 0 385 385">
    <rect fill="#D8D8D8" stroke-linejoin="round" x="56.018" y="39.785" width="288" height="281.603" rx="10.47" ry="10.47"/>
    <path fill="#787878" d="M 363.763 140.843 C 359.488 151.335 355.439 161.49 351.146 171.71 C 348.89 177.077 344.188 182.354 337.556 187.013 C 328.184 193.595 324.595 199.654 324.492 205.719 C 324.357 213.832 323.939 222.082 323.869 230.164 C 323.77 241.624 316.679 248.829 299.213 255.043 C 289.121 258.632 283.542 263.639 281.12 271.277 C 278.045 280.963 276.808 282.092 261.735 288.102 C 262.458 288.847 263.324 289.231 263.493 290.008 C 264.066 292.636 261.303 296.382 257.515 298.049 C 249.695 301.488 248.166 305.555 245.67 310.102 C 241.557 317.588 236.71 326.277 226.858 331.951 C 218.483 336.653 219.736 338.224 217.629 345.215 L 174.729 345.215 C 228.669 272.932 282.293 201.094 336.293 128.749 C 345.519 128.719 354.851 128.635 364.037 128.745 C 364.905 128.754 365.24 129.798 365.166 130.655 C 364.888 133.882 364.337 137.231 363.763 140.843 Z"/>
    <path fill="#A3A3A3" d="M 62.9 335.727 C 62.9 339.043 62.9 341.924 62.9 345.114 C 48.556 345.114 34.338 345.114 19.824 345.114 C 19.824 273.16 19.824 201.122 19.824 128.783 C 35.441 128.783 51.111 128.783 66.974 128.783 C 84.046 157.832 101.212 187.043 118.747 216.882 C 136.225 187.154 153.425 157.896 170.619 128.653 L 217.615 128.653 C 217.615 200.857 217.615 345.176 217.615 345.176 C 217.615 345.176 189.294 345.176 174.681 345.176 C 174.681 297.938 174.681 250.537 174.681 203.136 C 174.425 203.081 174.168 203.027 173.913 202.972 C 155.603 232.348 137.295 261.722 118.468 291.927 C 99.859 262.068 81.82 233.121 63.779 204.175 C 63.486 204.222 63.193 204.268 62.9 204.315 C 62.9 247.974 62.9 291.635 62.9 335.727 Z"/>
    <path fill="#787878" d="M 222.671 73.224 C 224.476 77.102 226.271 80.856 227.966 84.634 C 228.856 86.62 228.468 88.566 226.866 90.282 C 224.599 92.708 225.074 94.946 227.323 97.191 C 230.331 100.194 233.25 103.246 236.279 106.238 C 240.576 110.48 239.706 113.138 233.185 115.417 C 229.419 116.734 228.482 118.58 230.15 121.405 C 232.261 124.986 232.059 125.401 226.68 127.607 C 227.331 127.886 227.916 128.029 228.297 128.317 C 229.585 129.291 229.604 130.673 228.309 131.286 C 225.64 132.548 226.406 134.053 226.86 135.733 C 227.612 138.499 227.475 141.211 225.589 143.797 C 223.36 146.856 219.8 148.38 215.214 148.569 C 211.586 148.719 207.936 148.6 204.119 148.6 C 204.119 121.954 204.119 95.428 204.119 68.715 C 208.798 68.715 213.508 68.695 218.219 68.747 C 218.664 68.753 219.23 69.138 219.518 69.455 C 220.6 70.651 221.591 71.889 222.671 73.224 Z"/>
    <path fill="#050809" d="M 240.775 140.941 C 244.349 151.445 247.899 161.613 251.247 171.849 C 253.009 177.222 252.241 182.498 249.069 187.143 C 244.593 193.718 245.525 199.781 249.974 205.859 C 255.927 213.995 261.697 222.267 267.687 230.372 C 276.188 241.858 274.468 249.062 261.572 255.23 C 254.123 258.796 252.271 263.797 255.566 271.451 C 259.747 281.148 259.345 282.28 248.708 288.255 C 249.994 289.004 251.153 289.395 251.903 290.172 C 254.449 292.811 254.484 296.556 251.926 298.214 C 246.649 301.641 248.161 305.71 249.061 310.26 C 250.548 317.754 250.277 325.103 246.546 332.106 C 242.14 340.393 235.094 344.521 226 345.215 L 204.1 345.215 L 204.1 128.615 L 232 128.615 C 232.852 128.822 233.972 129.874 234.542 130.731 C 236.679 133.966 238.642 137.319 240.775 140.941 Z"/>
    <path fill="#050809" d="M 110.372 147.67 C 97.399 149.369 85.893 146.246 75.768 138.147 C 74.9 137.454 74.089 136.687 73.104 135.826 C 76.295 131.782 79.439 127.793 82.415 124.017 C 85.973 126.224 89.319 128.573 92.909 130.457 C 97.904 133.082 103.32 133.786 108.861 132.595 C 113.706 131.554 116.007 127.649 114.561 123.339 C 113.929 121.452 112.491 120.313 110.819 119.641 C 107.477 118.301 104.047 117.185 100.641 116.005 C 96.288 114.498 91.792 113.313 87.59 111.46 C 80.349 108.266 76.514 102.522 76.034 94.527 C 75.497 85.585 78.205 78.16 85.819 72.995 C 90.263 69.98 95.326 68.839 100.624 68.73 C 110.848 68.52 119.975 71.589 127.939 78.035 C 128.137 78.196 128.321 78.376 128.572 78.599 C 125.788 82.874 123.038 87.095 120.321 91.267 C 117.411 89.608 114.645 87.845 111.72 86.406 C 107.091 84.129 102.212 82.991 97.052 84.357 C 94.037 85.156 92.126 87.263 91.893 89.962 C 91.63 93.03 92.739 95.564 95.638 96.7 C 99.774 98.323 104.073 99.526 108.269 101.005 C 111.916 102.291 115.622 103.485 119.115 105.12 C 127.292 108.947 131.001 115.541 130.877 124.568 C 130.701 137.361 122.627 145.693 110.372 147.67 Z" />
    <path fill="#050809" d="M 192.11 77.934 C 190.081 81.045 188.11 84.056 186.286 86.843 C 183.58 86.081 181.138 85.116 178.61 84.732 C 167.749 83.081 159.537 89.609 156.299 98.102 C 152.926 106.949 153.513 115.569 158.631 123.597 C 164.717 133.141 175.6 134.813 184.617 131.107 C 185.049 130.929 185.474 130.728 186.018 130.488 C 188.795 134.745 191.546 138.965 194.364 143.286 C 191.147 145.586 187.67 147.12 183.897 147.811 C 172.395 149.92 161.639 148.264 152.22 140.889 C 144.085 134.52 139.51 125.981 137.971 115.885 C 136.357 105.294 137.954 95.189 143.834 86.055 C 151.491 74.159 162.579 68.55 176.639 68.739 C 181.776 68.807 186.821 69.507 191.432 72.001 C 192.529 72.593 193.501 73.418 194.562 74.158 C 193.674 75.522 192.924 76.679 192.11 77.934 Z"/>
    <path fill="#050809" d="M 263.602 145.083 C 263.602 146.305 263.602 147.366 263.602 148.543 C 258.317 148.543 253.076 148.543 247.729 148.543 C 247.729 122.026 247.729 95.48 247.729 68.822 C 253.483 68.822 259.258 68.822 265.104 68.822 C 271.395 79.528 277.721 90.291 284.182 101.288 C 290.623 90.333 296.961 79.551 303.297 68.774 C 309.052 68.774 314.79 68.774 320.616 68.774 C 320.616 95.382 320.616 121.928 320.616 148.566 C 315.377 148.566 310.18 148.566 304.795 148.566 C 304.795 131.157 304.795 113.69 304.795 96.222 C 304.699 96.201 304.606 96.182 304.511 96.161 C 297.765 106.987 291.017 117.811 284.08 128.941 C 277.221 117.938 270.574 107.271 263.926 96.604 C 263.818 96.622 263.712 96.639 263.602 96.656 C 263.602 112.745 263.602 128.835 263.602 145.083 Z"/>
</svg>