<svg xmlns="http://www.w3.org/2000/svg" viewBox="0 0 848 235" width="100%" height="100%">
    <path fill="#050809" d="M 81.965 223.87 C 57.142 227.122 35.125 221.146 15.752 205.65 C 14.09 204.321 12.538 202.855 10.654 201.207 C 16.758 193.467 22.775 185.836 28.471 178.612 C 35.279 182.834 41.681 187.329 48.548 190.935 C 58.108 195.955 68.469 197.303 79.073 195.025 C 88.343 193.034 92.744 185.559 89.979 177.314 C 88.768 173.704 86.018 171.524 82.818 170.239 C 76.426 167.673 69.86 165.538 63.346 163.282 C 55.013 160.396 46.411 158.132 38.372 154.587 C 24.514 148.474 17.18 137.483 16.26 122.185 C 15.231 105.077 20.413 90.867 34.982 80.983 C 43.486 75.213 53.172 73.032 63.314 72.824 C 82.873 72.421 100.336 78.293 115.576 90.628 C 115.956 90.936 116.307 91.279 116.787 91.708 C 111.461 99.886 106.2 107.965 101 115.948 C 95.43 112.772 90.14 109.398 84.543 106.646 C 75.683 102.287 66.351 100.11 56.476 102.725 C 50.708 104.253 47.051 108.285 46.606 113.449 C 46.1 119.321 48.224 124.168 53.77 126.344 C 61.685 129.449 69.913 131.748 77.941 134.579 C 84.919 137.04 92.01 139.326 98.693 142.454 C 114.341 149.777 121.436 162.393 121.199 179.667 C 120.863 204.146 105.411 220.086 81.965 223.87 Z"/>
    <path fill="#050809" d="M 238.365 90.436 C 234.481 96.387 230.711 102.148 227.221 107.482 C 222.042 106.025 217.372 104.179 212.534 103.443 C 191.751 100.282 176.039 112.775 169.843 129.026 C 163.388 145.953 164.511 162.446 174.306 177.808 C 185.95 196.07 206.774 199.269 224.026 192.179 C 224.855 191.838 225.666 191.454 226.709 190.992 C 232.022 199.139 237.287 207.213 242.679 215.481 C 236.523 219.883 229.87 222.817 222.652 224.14 C 200.641 228.176 180.059 225.008 162.035 210.897 C 146.47 198.71 137.719 182.371 134.774 163.051 C 131.685 142.786 134.742 123.451 145.991 105.974 C 160.644 83.211 181.857 72.479 208.762 72.84 C 218.591 72.971 228.246 74.312 237.068 79.083 C 239.166 80.218 241.026 81.793 243.057 83.209 C 241.359 85.819 239.919 88.033 238.365 90.436 Z"/>
    <path fill="#050809" d="M 289.173 81.424 C 291.697 88.844 294.205 96.027 296.572 103.256 C 297.815 107.053 297.273 110.779 295.034 114.062 C 291.869 118.703 292.531 122.987 295.673 127.281 C 299.876 133.028 303.952 138.869 308.185 144.594 C 314.188 152.711 312.973 157.797 303.864 162.157 C 298.602 164.675 297.293 168.209 299.621 173.613 C 302.573 180.465 302.291 181.262 294.776 185.484 C 295.685 186.014 296.502 186.288 297.034 186.838 C 298.833 188.701 298.858 191.348 297.051 192.52 C 293.322 194.937 294.392 197.815 295.028 201.029 C 296.076 206.322 295.885 211.512 293.251 216.46 C 290.136 222.313 285.163 225.229 278.759 225.591 C 273.689 225.878 268.589 225.649 263.258 225.649 C 263.258 174.663 263.258 123.907 263.258 72.795 C 269.792 72.795 276.375 72.757 282.955 72.855 C 283.577 72.865 284.367 73.605 284.769 74.212 C 286.281 76.497 287.666 78.868 289.173 81.424 Z"/>
    <path fill="#050809" d="M 360.235 218.92 C 360.235 221.258 360.235 223.291 360.235 225.539 C 350.121 225.539 340.095 225.539 329.861 225.539 C 329.861 174.803 329.861 124.007 329.861 73 C 340.873 73 351.922 73 363.108 73 C 375.145 93.483 387.249 114.08 399.614 135.12 C 411.937 114.158 424.066 93.528 436.189 72.907 C 447.198 72.907 458.178 72.907 469.328 72.907 C 469.328 123.821 469.328 174.614 469.328 225.583 C 459.304 225.583 449.358 225.583 439.054 225.583 C 439.054 192.274 439.054 158.851 439.054 125.428 C 438.873 125.389 438.693 125.351 438.512 125.312 C 425.602 146.025 412.692 166.738 399.417 188.036 C 386.295 166.982 373.575 146.571 360.854 126.16 C 360.648 126.193 360.442 126.226 360.235 126.258 C 360.235 157.044 360.235 187.83 360.235 218.92 Z"/>
    <path fill="#A3A3A3" d="M 535.071 216.312 C 535.071 219.628 535.071 222.509 535.071 225.699 C 520.727 225.699 506.509 225.699 491.995 225.699 C 491.995 153.745 491.995 81.707 491.995 9.368 C 507.612 9.368 523.282 9.368 539.145 9.368 C 556.217 38.417 573.383 67.628 590.918 97.467 C 608.396 67.739 625.596 38.481 642.79 9.238 L 689.786 9.238 C 689.786 81.442 689.786 225.761 689.786 225.761 C 689.786 225.761 661.465 225.761 646.852 225.761 C 646.852 178.523 646.852 131.122 646.852 83.721 C 646.596 83.666 646.339 83.612 646.084 83.557 C 627.774 112.933 609.466 142.307 590.639 172.512 C 572.03 142.653 553.991 113.706 535.95 84.76 C 535.657 84.807 535.364 84.853 535.071 84.9 C 535.071 128.559 535.071 172.22 535.071 216.312 Z"/>
    <path fill="#787878" d="M 835.934 21.428 C 831.659 31.92 827.61 42.075 823.317 52.295 C 821.061 57.662 816.359 62.939 809.727 67.598 C 800.355 74.18 796.766 80.239 796.663 86.304 C 796.528 94.417 796.11 102.667 796.04 110.749 C 795.941 122.209 788.85 129.414 771.384 135.628 C 761.292 139.217 755.713 144.224 753.291 151.862 C 750.216 161.548 748.979 162.677 733.906 168.687 C 734.629 169.432 735.495 169.816 735.664 170.593 C 736.237 173.221 733.474 176.967 729.686 178.634 C 721.866 182.073 720.337 186.14 717.841 190.687 C 713.728 198.173 708.881 206.862 699.029 212.536 C 690.654 217.238 691.907 218.809 689.8 225.8 L 646.9 225.8 C 700.84 153.517 754.464 81.679 808.464 9.334 C 817.69 9.304 827.022 9.22 836.208 9.33 C 837.076 9.339 837.411 10.383 837.337 11.24 C 837.059 14.467 836.508 17.816 835.934 21.428 Z"/>
    <path fill="#050809" d="M 713.475 21.526 C 717.049 32.03 720.599 42.198 723.947 52.434 C 725.709 57.807 724.941 63.083 721.769 67.728 C 717.293 74.303 718.225 80.366 722.674 86.444 C 728.627 94.58 734.397 102.852 740.387 110.957 C 748.888 122.443 747.168 129.647 734.272 135.815 C 726.823 139.381 724.971 144.382 728.266 152.036 C 732.447 161.733 732.045 162.865 721.408 168.84 C 722.694 169.589 723.853 169.98 724.603 170.757 C 727.149 173.396 727.184 177.141 724.626 178.799 C 719.349 182.226 720.861 186.295 721.761 190.845 C 723.248 198.339 722.977 205.688 719.246 212.691 C 714.84 220.978 707.794 225.106 698.7 225.8 L 676.8 225.8 L 676.8 9.2 L 704.7 9.2 C 705.552 9.407 706.672 10.459 707.242 11.316 C 709.379 14.551 711.342 17.904 713.475 21.526 Z"/>
</svg>